<?xml version="1.0" encoding="UTF-8" standalone="no"?>
<svg
   xmlns:dc="http://purl.org/dc/elements/1.1/"
   xmlns:cc="http://creativecommons.org/ns#"
   xmlns:rdf="http://www.w3.org/1999/02/22-rdf-syntax-ns#"
   xmlns:svg="http://www.w3.org/2000/svg"
   xmlns="http://www.w3.org/2000/svg"
   id="pionjar-logotype"
   height="8.4695225cm"
   width="7cm"
   version="1.0">
  <metadata
     id="metadata12">
    <rdf:RDF>
      <cc:Work
         rdf:about="">
        <dc:format>image/svg+xml</dc:format>
        <dc:type
           rdf:resource="http://purl.org/dc/dcmitype/StillImage" />
        <dc:title></dc:title>
      </cc:Work>
    </rdf:RDF>
  </metadata>
  <defs
     id="defs10" />
  <g
     transform="matrix(0.25882637,0,0,0.25882637,3.7105785,-3.0370093)"
     id="pionjar-logotype-normal">
    <path
       d="M 464.94497,785.88898 C 197.35937,631.08115 237.48346,558.42526 203.71828,195.14164 c 60.52709,-24.74241 167.56524,-38.12255 260.96399,-38.12279 93.38694,0 200.42526,13.38014 260.95471,38.12231 -33.76632,363.28387 6.35471,435.93968 -260.69201,590.74782 z"
       id="path869"
       style="fill:#fffffe;fill-opacity:0;fill-rule:evenodd;stroke:#5f5f5f;stroke-width:16.77216148;stroke-opacity:1" />
    <path
       d="m 344.54636,641.62635 120.73094,-22.1229 118.78394,22.1229"
       id="path871"
       style="fill:none;stroke:#6a3121;stroke-width:36.05537415;stroke-linejoin:bevel" />
    <path
       d="m 468.77483,212.2314 c -211.12575,187.74839 -119.96552,415.68732 34.15313,363.64177 71.28645,-23.18854 138.76006,-147.41928 6.10348,-274.1729 49.3769,210.16849 -148.82856,236.60457 -40.25661,-89.46887 z"
       id="path872"
       style="fill:#e32500;fill-rule:evenodd;stroke-width:0;stroke-linecap:round" />
    <path
       d="m 796.14017,1023.8423 3.52797,0 0,-15.5221 c 0,-4.9632 2.47913,-7.6881 7.38968,-8.1746 l 0,-3.55212 c -3.76635,0.19464 -6.00709,1.50843 -7.38968,4.42792 l 0,-3.79536 -3.52797,0 0,26.61626 m -6.0354,-26.61626 -3.52798,0 0,4.71986 c -2.57446,-3.69802 -5.76871,-5.35242 -10.29786,-5.35242 -7.81876,0 -13.73051,6.03372 -13.73051,14.01372 0,7.9313 5.95942,13.8677 13.96888,13.8677 4.4338,0 7.29432,-1.5085 10.05949,-5.3038 l 0,4.6712 3.52798,0 0,-26.61626 m -13.7305,2.67623 c 5.72103,0 10.20252,4.57393 10.20252,10.51023 0,6.0337 -4.38614,10.7536 -10.01182,10.7536 -5.91174,0 -10.4409,-4.7199 -10.4409,-10.8022 0,-5.7904 4.57684,-10.46163 10.2502,-10.46163 m -18.87125,-2.67623 -3.52798,0 0,4.71986 c -2.62214,-3.64936 -5.81639,-5.35242 -10.20252,-5.35242 -7.62805,0 -13.3491,6.03372 -13.3491,14.06232 0,7.7854 5.95942,13.8191 13.58747,13.8191 4.67219,0 7.91412,-1.9464 9.96415,-6.0337 l 0,1.8004 c 0,2.6275 -0.28605,4.2819 -1.04886,5.9363 -1.38258,3.0655 -4.52916,4.8172 -8.53388,4.8172 -2.90819,0 -5.14895,-0.8758 -7.00828,-2.6762 -0.90583,-0.8272 -1.43026,-1.6057 -2.57447,-3.6494 l -3.43262,0 c 1.90701,6.2283 6.53153,9.6344 13.11072,9.6344 4.52915,0 8.34318,-1.7517 10.58392,-4.7685 1.76399,-2.433 2.43145,-5.2552 2.43145,-10.4616 l 0,-21.84776 m -13.5398,2.67623 c 5.62568,0 10.01182,4.52523 10.01182,10.31563 0,6.2283 -4.29078,10.9482 -9.96415,10.9482 -5.72103,0 -10.01182,-4.6226 -10.01182,-10.8022 0,-6.0823 4.19544,-10.46163 9.96415,-10.46163 m -41.59078,23.94003 3.52798,0 0,-14.6462 c 0,-2.9682 0.38141,-4.5253 1.38258,-6.0337 1.38259,-2.0437 3.81403,-3.26013 6.5792,-3.26013 2.57447,0 4.91056,1.07053 6.34082,2.87083 1.23956,1.6544 1.71632,3.6008 1.71632,7.1042 l 0,13.965 3.52798,0 0,-13.965 c 0,-4.4766 -0.61979,-6.8609 -2.28843,-9.1478 -2.05003,-2.62759 -5.19661,-4.13602 -8.86761,-4.13602 -3.43262,0 -6.19779,1.36245 -8.39086,4.08732 l 0,-3.45476 -3.52798,0 0,26.61626 m -9.49782,0 3.52797,0 0,-26.61626 -3.52797,0 0,26.61626 m 0,-29.82772 3.52797,0 0,-6.13099 -3.52797,0 0,6.13099 m -29.05216,29.82772 3.52798,0 0,-14.6462 c 0,-2.9682 0.38139,-4.5253 1.38258,-6.0337 1.38259,-2.0437 3.81403,-3.26013 6.57919,-3.26013 2.57447,0 4.91057,1.07053 6.34083,2.87083 1.23955,1.6544 1.71631,3.6008 1.71631,7.1042 l 0,13.965 3.52797,0 0,-13.965 c 0,-4.4766 -0.61978,-6.8609 -2.28841,-9.1478 -2.05004,-2.62759 -5.19662,-4.13602 -8.86762,-4.13602 -3.43261,0 -6.19779,1.36245 -8.39085,4.08732 l 0,-3.45476 -3.52798,0 0,26.61626 m -14.33982,0 3.52798,0 0,-15.5221 c 0,-4.9632 2.47912,-7.6881 7.38967,-8.1746 l 0,-3.55212 c -3.76635,0.19464 -6.00709,1.50843 -7.38967,4.42792 l 0,-3.79536 -3.52798,0 0,26.61626 m -6.03543,-26.61626 -3.52797,0 0,4.71986 c -2.57447,-3.69802 -5.76873,-5.35242 -10.29788,-5.35242 -7.81874,0 -13.73049,6.03372 -13.73049,14.01372 0,7.9313 5.95942,13.8677 13.96887,13.8677 4.4338,0 7.29433,-1.5085 10.0595,-5.3038 l 0,4.6712 3.52797,0 0,-26.61626 m -13.7305,2.67623 c 5.72104,0 10.20253,4.57393 10.20253,10.51023 0,6.0337 -4.38614,10.7536 -10.01183,10.7536 -5.91173,0 -10.4409,-4.7199 -10.4409,-10.8022 0,-5.7904 4.57685,-10.46163 10.2502,-10.46163 m -4.33845,-12.50526 0,6.13098 3.52798,0 0,-6.13098 -3.52798,0 m 7.00827,0 0,6.13098 3.52797,0 0,-6.13098 -3.52797,0 m -21.54104,9.82903 -3.52797,0 0,4.71986 c -2.62215,-3.64936 -5.8164,-5.35242 -10.20253,-5.35242 -7.62805,0 -13.34909,6.03372 -13.34909,14.06232 0,7.7854 5.95942,13.8191 13.58746,13.8191 4.67219,0 7.91412,-1.9464 9.96416,-6.0337 l 0,1.8004 c 0,2.6275 -0.28606,4.2819 -1.04886,5.9363 -1.38259,3.0655 -4.52916,4.8172 -8.53389,4.8172 -2.90819,0 -5.14894,-0.8758 -7.00828,-2.6762 -0.90582,-0.8272 -1.43026,-1.6057 -2.57446,-3.6494 l -3.43263,0 c 1.90701,6.2283 6.53153,9.6344 13.11072,9.6344 4.52916,0 8.34319,-1.7517 10.58393,-4.7685 1.76398,-2.433 2.43144,-5.2552 2.43144,-10.4616 l 0,-21.84776 m -13.5398,2.67623 c 5.62569,0 10.01183,4.52523 10.01183,10.31563 0,6.2283 -4.29079,10.9482 -9.96416,10.9482 -5.72103,0 -10.01182,-4.6226 -10.01182,-10.8022 0,-6.0823 4.19544,-10.46163 9.96415,-10.46163 m -31.79648,-2.67623 -3.52797,0 0,4.71986 c -2.57447,-3.69802 -5.76873,-5.35242 -10.29788,-5.35242 -7.81874,0 -13.73049,6.03372 -13.73049,14.01372 0,7.9313 5.95942,13.8677 13.96887,13.8677 4.4338,0 7.29433,-1.5085 10.0595,-5.3038 l 0,4.6712 3.52797,0 0,-26.61626 m -13.7305,2.67623 c 5.72104,0 10.20253,4.57393 10.20253,10.51023 0,6.0337 -4.38614,10.7536 -10.01183,10.7536 -5.91173,0 -10.4409,-4.7199 -10.4409,-10.8022 0,-5.7904 4.57685,-10.46163 10.2502,-10.46163 m -18.85784,-12.01868 -3.52797,0 0,13.57571 c -2.57447,-3.16276 -6.15012,-4.86582 -10.2502,-4.86582 -7.86642,0 -13.87353,6.03372 -13.87353,13.96502 0,7.8827 6.15013,13.9164 14.20726,13.9164 4.33845,0 7.29432,-1.6058 9.91647,-5.4498 l 0,4.8172 3.52797,0 0,-35.95871 m -13.87352,12.01868 c 5.76871,0 10.48857,4.71993 10.48857,10.55893 0,5.839 -4.57683,10.7049 -10.15484,10.7049 -5.95941,0 -10.53626,-4.6712 -10.53626,-10.7536 0,-5.839 4.52917,-10.51023 10.20253,-10.51023 m -31.28918,-3.30879 c -7.72339,0 -13.68282,5.98502 -13.68282,13.77042 0,8.1746 5.86408,14.111 13.96888,14.111 7.62805,0 13.25374,-5.8877 13.25374,-13.8677 0,-8.126 -5.72104,-14.01372 -13.5398,-14.01372 m 0,3.30879 c 5.72104,0 9.96416,4.57393 9.96416,10.75353 0,6.0823 -4.10009,10.5103 -9.77345,10.5103 -6.00709,0 -10.29788,-4.4766 -10.29788,-10.7049 0,-6.0337 4.33847,-10.55893 10.10717,-10.55893 m -18.72819,-2.67623 -3.52798,0 0,4.71986 c -2.62213,-3.64936 -5.81639,-5.35242 -10.20252,-5.35242 -7.62805,0 -13.3491,6.03372 -13.3491,14.06232 0,7.7854 5.95943,13.8191 13.58747,13.8191 4.67219,0 7.91412,-1.9464 9.96415,-6.0337 l 0,1.8004 c 0,2.6275 -0.28605,4.2819 -1.04886,5.9363 -1.38258,3.0655 -4.52916,4.8172 -8.53388,4.8172 -2.9082,0 -5.14894,-0.8758 -7.00828,-2.6762 -0.90583,-0.8272 -1.43026,-1.6057 -2.57447,-3.6494 l -3.43262,0 c 1.90701,6.2283 6.53153,9.6344 13.11072,9.6344 4.52915,0 8.34318,-1.7517 10.58392,-4.7685 1.764,-2.433 2.43145,-5.2552 2.43145,-10.4616 l 0,-21.84776 m -13.5398,2.67623 c 5.62568,0 10.01182,4.52523 10.01182,10.31563 0,6.2283 -4.29079,10.9482 -9.96415,10.9482 -5.72103,0 -10.01181,-4.6226 -10.01181,-10.8022 0,-6.0823 4.19542,-10.46163 9.96414,-10.46163 m -40.10093,23.94003 3.52797,0 0,-15.5221 c 0,-4.9632 2.47913,-7.6881 7.38969,-8.1746 l 0,-3.55212 c -3.76635,0.19464 -6.0071,1.50843 -7.38969,4.42792 l 0,-3.79536 -3.52797,0 0,26.61626 m -18.51217,-27.24882 c -7.72341,0 -13.68283,5.98502 -13.68283,13.77042 0,8.1746 5.86407,14.111 13.96887,14.111 7.62805,0 13.25375,-5.8877 13.25375,-13.8677 0,-8.126 -5.72105,-14.01372 -13.53979,-14.01372 m 0,3.30879 c 5.72103,0 9.96414,4.57393 9.96414,10.75353 0,6.0823 -4.10009,10.5103 -9.77345,10.5103 -6.00708,0 -10.29787,-4.4766 -10.29787,-10.7049 0,-6.0337 4.33846,-10.55893 10.10718,-10.55893 m -5.33965,-12.50526 0,6.13098 3.52798,0 0,-6.13098 -3.52798,0 m 7.00828,0 0,6.13098 3.52797,0 0,-6.13098 -3.52797,0 m -27.53029,36.44529 3.52798,0 0,-23.3561 6.48385,0 0,-3.26016 -6.48385,0 c -0.0477,-4.42792 1.66864,-6.03366 6.48385,-6.08232 l 0,-3.26013 c -6.72223,0 -10.10718,3.16282 -10.01183,9.34245 l -4.0524,0 0,3.26016 4.0524,0 0,23.3561 m -33.5463,-27.24882 c -7.72341,0 -13.68282,5.98502 -13.68282,13.77042 0,8.1746 5.86406,14.111 13.96887,14.111 7.62804,0 13.25374,-5.8877 13.25374,-13.8677 0,-8.126 -5.72105,-14.01372 -13.53979,-14.01372 m 0,3.30879 c 5.72103,0 9.96414,4.57393 9.96414,10.75353 0,6.0823 -4.10009,10.5103 -9.77344,10.5103 -6.00709,0 -10.29788,-4.4766 -10.29788,-10.7049 0,-6.0337 4.33846,-10.55893 10.10718,-10.55893 m -18.71482,-12.01868 -3.52797,0 0,13.57571 c -2.57447,-3.16276 -6.15013,-4.86582 -10.25021,-4.86582 -7.86641,0 -13.87352,6.03372 -13.87352,13.96502 0,7.8827 6.15013,13.9164 14.20726,13.9164 4.33845,0 7.29432,-1.6058 9.91647,-5.4498 l 0,4.8172 3.52797,0 0,-35.95871 m -13.87352,12.01868 c 5.7687,0 10.48857,4.71993 10.48857,10.55893 0,5.839 -4.57684,10.7049 -10.15485,10.7049 -5.95941,0 -10.53625,-4.6712 -10.53625,-10.7536 0,-5.839 4.52916,-10.51023 10.20253,-10.51023 m -17.6585,11.82403 c 0,-3.6494 -0.47675,-5.8877 -1.76399,-8.2233 -2.33609,-4.23329 -6.86525,-6.90952 -11.82348,-6.90952 -7.58037,0 -13.5398,6.08232 -13.5398,13.81902 0,7.8827 6.05478,14.0624 13.77817,14.0624 3.33727,0 6.48385,-1.2652 8.86761,-3.5521 1.85935,-1.8004 3.0989,-3.6494 3.81403,-5.839 l -3.67099,0 c -1.47794,3.6493 -5.14895,6.0823 -9.106,6.0823 -5.33963,0 -9.86879,-4.1847 -10.15484,-9.4398 l 23.59929,0 m -23.50394,-3.2601 c 0.9535,-5.1092 4.91057,-8.56393 9.8688,-8.56393 5.05357,0 8.91528,3.26013 10.10716,8.56393 l -19.97596,0 m -16.962,15.3761 3.52798,0 0,-15.5221 c 0,-4.9632 2.47912,-7.6881 7.38968,-8.1746 l 0,-3.55212 c -3.76635,0.19464 -6.0071,1.50843 -7.38968,4.42792 l 0,-3.79536 -3.52798,0 0,26.61626 m -19.25562,-35.95871 -3.52797,0 0,13.57571 c -2.57447,-3.16276 -6.15012,-4.86582 -10.2502,-4.86582 -7.86642,0 -13.87352,6.03372 -13.87352,13.96502 0,7.8827 6.15012,13.9164 14.20725,13.9164 4.33845,0 7.29433,-1.6058 9.91647,-5.4498 l 0,4.8172 3.52797,0 0,-35.95871 m -13.87352,12.01868 c 5.76871,0 10.48857,4.71993 10.48857,10.55893 0,5.839 -4.57683,10.7049 -10.15484,10.7049 -5.95941,0 -10.53626,-4.6712 -10.53626,-10.7536 0,-5.839 4.52917,-10.51023 10.20253,-10.51023 m -22.27482,23.94003 3.52797,0 0,-26.61626 -3.52797,0 0,26.61626 m 0,-29.82772 3.52797,0 0,-6.13099 -3.52797,0 0,6.13099 m -13.00791,29.82772 3.52797,0 0,-23.3561 5.86407,0 0,-3.26016 -5.86407,0 0,-9.34245 -3.52797,0 0,9.34245 -5.62569,0 0,3.26016 5.62569,0 0,23.3561 m -12.69208,0 3.52798,0 0,-35.95871 -3.52798,0 0,35.95871 m -9.49782,0 3.52798,0 0,-35.95871 -3.52798,0 0,35.95871 m -6.0354,-26.61626 -3.52797,0 0,4.71986 c -2.57447,-3.69802 -5.76872,-5.35242 -10.29788,-5.35242 -7.81874,0 -13.73049,6.03372 -13.73049,14.01372 0,7.9313 5.95942,13.8677 13.96887,13.8677 4.4338,0 7.29433,-1.5085 10.0595,-5.3038 l 0,4.6712 3.52797,0 0,-26.61626 m -13.7305,2.67623 c 5.72104,0 10.20253,4.57393 10.20253,10.51023 0,6.0337 -4.38614,10.7536 -10.01182,10.7536 -5.91174,0 -10.4409,-4.7199 -10.4409,-10.8022 0,-5.7904 4.57683,-10.46163 10.25019,-10.46163 m 670.32609,-119.06502 -9.44415,0 0,12.37949 c -6.89166,-9.69938 -15.44246,-14.03859 -27.56668,-14.03859 -20.93025,0 -36.75559,15.82534 -36.75559,36.75558 0,20.80262 15.95297,36.37272 37.3937,36.37272 11.86898,0 19.52642,-3.95635 26.92857,-13.91097 l 0,12.25186 9.44415,0 0,-69.81009 m -36.75559,7.0193 c 15.31481,0 27.31144,11.99663 27.31144,27.56669 0,15.8253 -11.74138,28.2048 -26.80094,28.2048 -15.82531,0 -27.94956,-12.3795 -27.94956,-28.33243 0,-15.18718 12.25187,-27.43906 27.43906,-27.43906 m -112.1013,62.79079 9.44414,0 0,-38.41469 c 0,-7.78503 1.02099,-11.869 3.70108,-15.82532 3.70108,-5.36019 10.2099,-8.55078 17.61205,-8.55078 6.89167,0 13.14524,2.80772 16.97394,7.52979 3.31821,4.33919 4.59445,9.44415 4.59445,18.63304 l 0,36.62796 9.44414,0 0,-36.62796 c 0,-11.74136 -1.65911,-17.99493 -6.12593,-23.99323 -5.48781,-6.89167 -13.91098,-10.848 -23.73798,-10.848 -9.18889,0 -16.59107,3.57346 -22.46175,10.72038 l 0,-9.06128 -9.44414,0 0,69.81009 m -38.38678,0 9.44414,0 0,-40.71192 c 0,-13.01759 6.63644,-20.16452 19.78165,-21.44075 l 0,-9.31652 c -10.08225,0.51049 -16.08057,3.95633 -19.78165,11.61374 l 0,-9.95464 -9.44414,0 0,69.81009 m -13.06745,-31.77827 c 0,-9.57175 -1.27624,-15.44245 -4.72207,-21.56838 -6.25355,-11.10324 -18.37781,-18.12254 -31.65064,-18.12254 -20.29213,0 -36.24509,15.95296 -36.24509,36.24509 0,20.67499 16.20821,36.88321 36.8832,36.88321 8.93364,0 17.35681,-3.31822 23.73799,-9.31652 4.97731,-4.72207 8.29553,-9.57178 10.20988,-15.31483 l -9.82701,0 c -3.95633,9.57176 -13.78336,15.95294 -24.3761,15.95294 -14.29383,0 -26.41808,-10.97564 -27.18382,-24.75897 l 63.17366,0 m -62.91841,-8.55078 c 2.55246,-13.40046 13.14524,-22.46174 26.41807,-22.46174 13.52809,0 23.86561,8.55079 27.0562,22.46174 l -53.47427,0 m -45.40608,40.32905 9.44414,0 0,-40.71192 c 0,-13.01759 6.63644,-20.16452 19.78165,-21.44075 l 0,-9.31652 c -10.08225,0.51049 -16.08057,3.95633 -19.78165,11.61374 l 0,-9.95464 -9.44414,0 0,69.81009 m -16.15635,-69.81009 -9.44415,0 0,12.37949 c -6.89166,-9.69938 -15.44246,-14.03859 -27.56669,-14.03859 -20.93024,0 -36.75558,15.82534 -36.75558,36.75558 0,20.80262 15.95297,36.37272 37.3937,36.37272 11.86898,0 19.52641,-3.95635 26.92857,-13.91097 l 0,12.25186 9.44415,0 0,-69.81009 m -36.75559,7.0193 c 15.31481,0 27.31144,11.99663 27.31144,27.56669 0,15.8253 -11.74138,28.2048 -26.80094,28.2048 -15.82531,0 -27.94956,-12.3795 -27.94956,-28.33243 0,-15.18718 12.25187,-27.43906 27.43906,-27.43906 m -11.61374,-32.79926 0,16.08057 9.44414,0 0,-16.08057 -9.44414,0 m 18.76066,0 0,16.08057 9.44414,0 0,-16.08057 -9.44414,0 m -57.57416,25.77996 -9.44415,0 0,64.96039 c 0,14.54907 -3.57347,19.65403 -14.16621,20.29215 l 0,9.06127 c 6.12592,-0.25524 10.46513,-1.65911 14.67671,-4.72207 6.76404,-5.10494 8.93365,-10.97564 8.93365,-24.63135 l 0,-64.96039 m -9.44415,-8.42315 9.44415,0 0,-16.08057 -9.44415,0 0,16.08057 m -78.15348,78.23324 9.44414,0 0,-38.41469 c 0,-7.78503 1.02099,-11.869 3.70108,-15.82532 3.70108,-5.36019 10.2099,-8.55078 17.61205,-8.55078 6.89167,0 13.14523,2.80772 16.97394,7.52979 3.31821,4.33919 4.59445,9.44415 4.59445,18.63304 l 0,36.62796 9.44414,0 0,-36.62796 c 0,-11.74136 -1.65911,-17.99493 -6.12593,-23.99323 -5.48781,-6.89167 -13.91098,-10.848 -23.73798,-10.848 -9.18889,0 -16.59107,3.57346 -22.46175,10.72038 l 0,-9.06128 -9.44414,0 0,69.81009 m -49.55583,-71.46919 c -20.675,0 -36.62796,15.69771 -36.62796,36.11746 0,21.44074 15.69772,37.01084 37.3937,37.01084 20.41975,0 35.47935,-15.44248 35.47935,-36.37272 0,-21.31311 -15.31485,-36.75558 -36.24509,-36.75558 m 0,8.6784 c 15.31481,0 26.67332,11.99663 26.67332,28.2048 0,15.95293 -10.97564,27.56669 -26.16283,27.56669 -16.08055,0 -27.56668,-11.74138 -27.56668,-28.07718 0,-15.8253 11.61376,-27.69431 27.05619,-27.69431 m -59.37287,62.79079 9.44414,0 0,-69.81009 -9.44414,0 0,69.81009 m 0,-78.23324 9.44414,0 0,-16.08057 -9.44414,0 0,16.08057 m -73.86811,78.23324 9.44414,0 0,-38.15944 18.12254,0 c 12.76235,0 19.65404,-1.65912 25.39709,-5.87069 6.12593,-4.46682 9.44415,-12.25187 9.44415,-21.696 0,-10.848 -4.08397,-19.39879 -11.23088,-23.61036 -5.87067,-3.57346 -13.01761,-4.97732 -25.14184,-4.97732 l -26.0352,0 0,94.31381 m 9.44414,-46.71022 0,-39.05281 13.40047,0 c 10.84799,0 17.61206,0.89336 21.44076,2.80772 5.48781,2.80771 8.55078,8.80603 8.55078,17.22918 0,7.27453 -2.93535,13.14523 -7.78504,15.82532 -3.95633,2.29722 -9.44415,3.19059 -18.12254,3.19059 l -17.48443,0"
       id="path3120"
       style="fill:#000000" />
  </g>
</svg>
