<?xml version="1.0" encoding="UTF-8" standalone="no"?>
<svg
   xmlns:dc="http://purl.org/dc/elements/1.1/"
   xmlns:cc="http://creativecommons.org/ns#"
   xmlns:rdf="http://www.w3.org/1999/02/22-rdf-syntax-ns#"
   xmlns:svg="http://www.w3.org/2000/svg"
   xmlns="http://www.w3.org/2000/svg"
   version="1.0"
   width="66.525505mm"
   height="21.000004mm"
   id="pionjar-logotype">
  <metadata
     id="metadata11">
    <rdf:RDF>
      <cc:Work
         rdf:about="">
        <dc:format>image/svg+xml</dc:format>
        <dc:type
           rdf:resource="http://purl.org/dc/dcmitype/StillImage" />
        <dc:title></dc:title>
      </cc:Work>
    </rdf:RDF>
  </metadata>
  <defs
     id="defs9" />
  <path
     d="m 32.824114,62.98339 c -21.9834,-12.718169 -18.687,-18.68718 -21.46095,-48.53256 4.97265,-2.032695 13.76625,-3.13194 21.43935,-3.131955 7.6722,0 16.4658,1.099245 21.4386,3.131925 -2.7741,29.845395 0.52215,35.814405 -21.417,48.53259 z"
     id="path869"
     style="fill:#fffffe;fill-opacity:0;fill-rule:evenodd;stroke:#5f5f5f;stroke-width:0.91860563;stroke-opacity:1" />
  <path
     d="m 22.932814,51.131561 9.9186,-1.817491 9.7587,1.817491"
     id="path871"
     style="fill:none;stroke:#6a3121;stroke-width:1.97474062;stroke-linejoin:bevel" />
  <path
     d="m 33.138814,15.85483 c -17.34495,15.42438 -9.855749,34.15059 2.80575,29.87481 5.8566,-1.905045 11.39985,-12.11115 0.50145,-22.52454 4.0566,17.26629 -12.22695,19.43814 -3.3072,-7.35027 z"
     id="path872"
     style="fill:#e32500;fill-rule:evenodd;stroke-width:0;stroke-linecap:round" />
  <path
     d="m 222.61746,57.083381 h 0.79905 V 53.56738 c 0,-1.124249 0.5616,-1.741485 1.67385,-1.851689 V 50.91109 c -0.85305,0.0441 -1.36065,0.341685 -1.67385,1.002991 v -0.85971 h -0.79905 v 6.02901 m -1.3671,-6.02901 h -0.7992 v 1.069125 c -0.5832,-0.83766 -1.30665,-1.212406 -2.33265,-1.212406 -1.77105,0 -3.1101,1.366725 -3.1101,3.17433 0,1.796565 1.34985,3.141255 3.1641,3.141255 1.0044,0 1.65225,-0.3417 2.27865,-1.201395 v 1.0581 h 0.7992 v -6.02901 m -3.11025,0.60621 c 1.29585,0 2.31105,1.036065 2.31105,2.38074 0,1.366725 -0.9936,2.435865 -2.26785,2.435865 -1.33905,0 -2.36505,-1.06914 -2.36505,-2.446875 0,-1.311615 1.0368,-2.36973 2.32185,-2.36973 m -4.2747,-0.60621 h -0.79905 v 1.069125 c -0.594,-0.826635 -1.3176,-1.212405 -2.31105,-1.212405 -1.72785,0 -3.02385,1.366725 -3.02385,3.18534 0,1.76352 1.35,3.130245 3.07785,3.130245 1.05825,0 1.79265,-0.44088 2.25705,-1.366725 v 0.40782 c 0,0.59517 -0.0645,0.969915 -0.2376,1.34466 -0.3132,0.694395 -1.026,1.091175 -1.93305,1.091175 -0.6588,0 -1.1664,-0.198375 -1.58745,-0.606195 -0.2052,-0.18738 -0.324,-0.36372 -0.5832,-0.82665 h -0.7776 c 0.432,1.41081 1.4796,2.18235 2.96985,2.18235 1.02585,0 1.88985,-0.396795 2.39745,-1.08015 0.3996,-0.551115 0.55065,-1.190385 0.55065,-2.369715 V 51.05437 m -3.0669,0.60621 c 1.27425,0 2.26785,1.02504 2.26785,2.336655 0,1.41081 -0.972,2.47995 -2.25705,2.47995 -1.296,0 -2.26785,-1.047105 -2.26785,-2.446875 0,-1.377735 0.9504,-2.36973 2.25705,-2.36973 m -9.42105,5.4228 h 0.7992 v -3.317595 c 0,-0.672345 0.087,-1.025055 0.3132,-1.36674 0.3132,-0.46293 0.86385,-0.738465 1.49025,-0.738465 0.5832,0 1.1124,0.24249 1.43625,0.650295 0.2808,0.374745 0.3888,0.81564 0.3888,1.609215 v 3.16329 h 0.7992 v -3.16329 c 0,-1.01403 -0.141,-1.554105 -0.5184,-2.07213 -0.4644,-0.595185 -1.17705,-0.93687 -2.00865,-0.93687 -0.77745,0 -1.40385,0.30861 -1.90065,0.925845 V 51.05437 h -0.7992 v 6.02901 m -2.1513,0 h 0.79905 v -6.02901 h -0.79905 v 6.02901 m 0,-6.756465 h 0.79905 v -1.38876 h -0.79905 v 1.38876 m -6.5808,6.756465 h 0.79905 v -3.317595 c 0,-0.672345 0.087,-1.025055 0.3132,-1.36674 0.3132,-0.46293 0.864,-0.738465 1.49025,-0.738465 0.5832,0 1.1124,0.24249 1.4364,0.650295 0.2808,0.374745 0.3888,0.81564 0.3888,1.609215 v 3.16329 h 0.79905 v -3.16329 c 0,-1.01403 -0.141,-1.554105 -0.5184,-2.07213 -0.46425,-0.595185 -1.17705,-0.93687 -2.00865,-0.93687 -0.77745,0 -1.40385,0.30861 -1.90065,0.925845 V 51.05437 h -0.79905 v 6.02901 m -3.24825,0 h 0.7992 v -3.516 c 0,-1.12425 0.56145,-1.741485 1.67385,-1.85169 v -0.8046 c -0.8532,0.0441 -1.3608,0.341685 -1.67385,1.00299 v -0.85971 h -0.7992 v 6.02901 m -1.3671,-6.02901 h -0.7992 v 1.069125 c -0.58305,-0.83766 -1.30665,-1.212405 -2.33265,-1.212405 -1.77105,0 -3.1101,1.366725 -3.1101,3.17433 0,1.796565 1.34985,3.141255 3.1641,3.141255 1.0044,0 1.6524,-0.3417 2.27865,-1.201395 v 1.0581 h 0.7992 v -6.02901 m -3.11025,0.60621 c 1.296,0 2.31105,1.036065 2.31105,2.38074 0,1.366725 -0.99345,2.435865 -2.26785,2.435865 -1.33905,0 -2.36505,-1.06914 -2.36505,-2.446875 0,-1.311615 1.0368,-2.36973 2.32185,-2.36973 m -0.98265,-2.832645 v 1.38876 h 0.79905 v -1.38876 h -0.79905 m 1.58745,0 v 1.38876 h 0.7992 v -1.38876 h -0.7992 m -4.87935,2.226435 h -0.7992 v 1.069125 c -0.594,-0.826635 -1.31745,-1.212405 -2.31105,-1.212405 -1.72785,0 -3.0237,1.366725 -3.0237,3.18534 0,1.76352 1.34985,3.130245 3.0777,3.130245 1.0584,0 1.79265,-0.44088 2.25705,-1.366725 v 0.40782 c 0,0.59517 -0.0645,0.969915 -0.2376,1.34466 -0.3132,0.694395 -1.02585,1.091175 -1.93305,1.091175 -0.6588,0 -1.16625,-0.198375 -1.58745,-0.606195 -0.2052,-0.18738 -0.324,-0.36372 -0.5832,-0.82665 h -0.7776 c 0.432,1.41081 1.4796,2.18235 2.96985,2.18235 1.026,0 1.88985,-0.396795 2.39745,-1.08015 0.3996,-0.551115 0.5508,-1.190385 0.5508,-2.369715 V 51.05437 m -3.06705,0.60621 c 1.2744,0 2.26785,1.02504 2.26785,2.336655 0,1.41081 -0.97185,2.47995 -2.25705,2.47995 -1.29585,0 -2.26785,-1.047105 -2.26785,-2.446875 0,-1.377735 0.9504,-2.36973 2.25705,-2.36973 m -7.2024,-0.60621 h -0.7992 v 1.069125 c -0.58305,-0.83766 -1.30665,-1.212405 -2.3325,-1.212405 -1.7712,0 -3.11025,1.366725 -3.11025,3.17433 0,1.796565 1.34985,3.141255 3.1641,3.141255 1.0044,0 1.6524,-0.3417 2.27865,-1.201395 v 1.0581 h 0.7992 v -6.02901 m -3.11025,0.60621 c 1.296,0 2.31105,1.036065 2.31105,2.38074 0,1.366725 -0.99345,2.435865 -2.26785,2.435865 -1.33905,0 -2.3649,-1.06914 -2.3649,-2.446875 0,-1.311615 1.03665,-2.36973 2.3217,-2.36973 m -4.27155,-2.722425 h -0.79905 v 3.07512 c -0.5832,-0.716415 -1.3932,-1.102185 -2.32185,-1.102185 -1.78185,0 -3.14265,1.366725 -3.14265,3.163305 0,1.785555 1.39305,3.15228 3.2181,3.15228 0.9828,0 1.6524,-0.363735 2.2464,-1.23447 v 1.091175 h 0.79905 v -8.145225 m -3.1425,2.722425 c 1.30665,0 2.3757,1.06914 2.3757,2.391765 0,1.322625 -1.03665,2.42484 -2.3001,2.42484 -1.35,0 -2.38665,-1.0581 -2.38665,-2.435865 0,-1.322625 1.02585,-2.38074 2.31105,-2.38074 m -7.0875,-0.74949 c -1.7496,0 -3.09944,1.3557 -3.09944,3.11922 0,1.851675 1.32824,3.196365 3.16409,3.196365 1.728,0 3.00225,-1.33365 3.00225,-3.141255 0,-1.840665 -1.29585,-3.17433 -3.0669,-3.17433 m 0,0.74949 c 1.29585,0 2.2569,1.036065 2.2569,2.43585 0,1.377735 -0.92865,2.380755 -2.2137,2.380755 -1.3608,0 -2.33265,-1.01403 -2.33265,-2.42484 0,-1.366725 0.98265,-2.391765 2.28945,-2.391765 m -4.24229,-0.60621 h -0.7992 v 1.069125 c -0.59385,-0.826635 -1.31745,-1.212405 -2.31105,-1.212405 -1.72785,0 -3.0237,1.366725 -3.0237,3.18534 0,1.76352 1.34985,3.130245 3.0777,3.130245 1.0584,0 1.7928,-0.44088 2.25705,-1.366725 v 0.40782 c 0,0.59517 -0.0645,0.969915 -0.2376,1.34466 -0.31305,0.694395 -1.02585,1.091175 -1.93305,1.091175 -0.65865,0 -1.16625,-0.198375 -1.58745,-0.606195 -0.2052,-0.18738 -0.324,-0.36372 -0.5832,-0.82665 h -0.77745 c 0.432,1.41081 1.47945,2.18235 2.9697,2.18235 1.026,0 1.89,-0.396795 2.39745,-1.08015 0.3996,-0.551115 0.5508,-1.190385 0.5508,-2.369715 V 51.05437 m -3.06705,0.60621 c 1.2744,0 2.26785,1.02504 2.26785,2.336655 0,1.41081 -0.97185,2.47995 -2.25705,2.47995 -1.29585,0 -2.26785,-1.047105 -2.26785,-2.446875 0,-1.377735 0.9504,-2.36973 2.25705,-2.36973 m -9.08341,5.4228 h 0.79905 v -3.516 c 0,-1.12425 0.5616,-1.741485 1.67385,-1.85169 v -0.8046 c -0.85305,0.0441 -1.36065,0.341685 -1.67385,1.00299 v -0.85971 h -0.79905 v 6.02901 m -4.1934,-6.17229 c -1.74945,0 -3.0993,1.3557 -3.0993,3.11922 0,1.851675 1.32825,3.196365 3.1641,3.196365 1.72785,0 3.00225,-1.33365 3.00225,-3.141255 0,-1.840665 -1.296,-3.17433 -3.06705,-3.17433 m 0,0.74949 c 1.296,0 2.25705,1.036065 2.25705,2.43585 0,1.377735 -0.92865,2.380755 -2.21385,2.380755 -1.36065,0 -2.33265,-1.01403 -2.33265,-2.42484 0,-1.366725 0.9828,-2.391765 2.28945,-2.391765 m -1.20945,-2.832645 v 1.38876 h 0.79905 v -1.38876 h -0.79905 m 1.58745,0 v 1.38876 h 0.7992 v -1.38876 h -0.7992 m -6.2361,8.255445 h 0.7992 v -5.29053 h 1.46865 v -0.73848 h -1.46865 c -0.015,-1.00299 0.378,-1.366725 1.46865,-1.37775 v -0.738465 c -1.52265,0 -2.28945,0.71643 -2.26785,2.116215 h -0.91785 v 0.73848 h 0.91785 v 5.29053 m -7.5987,-6.17229 c -1.74945,0 -3.09945,1.3557 -3.09945,3.11922 0,1.851675 1.3284,3.196365 3.16425,3.196365 1.72785,0 3.0021,-1.33365 3.0021,-3.141255 0,-1.840665 -1.29585,-3.17433 -3.0669,-3.17433 m 0,0.74949 c 1.29585,0 2.25705,1.036065 2.25705,2.43585 0,1.377735 -0.9288,2.380755 -2.21385,2.380755 -1.3608,0 -2.33265,-1.01403 -2.33265,-2.42484 0,-1.366725 0.98265,-2.391765 2.28945,-2.391765 m -4.2393,-2.722425 h -0.79905 v 3.07512 c -0.5832,-0.716415 -1.3932,-1.102185 -2.32185,-1.102185 -1.78185,0 -3.14265,1.366725 -3.14265,3.163305 0,1.785555 1.3932,3.15228 3.21825,3.15228 0.98265,0 1.65225,-0.363735 2.24625,-1.23447 v 1.091175 h 0.79905 v -8.145225 m -3.1425,2.722425 c 1.30665,0 2.37585,1.06914 2.37585,2.391765 0,1.322625 -1.0368,2.42484 -2.30025,2.42484 -1.34985,0 -2.38665,-1.0581 -2.38665,-2.435865 0,-1.322625 1.02585,-2.38074 2.31105,-2.38074 m -3.9999,2.67834 c 0,-0.82665 -0.108,-1.333665 -0.3996,-1.862715 -0.5292,-0.958905 -1.55505,-1.565115 -2.67825,-1.565115 -1.71705,0 -3.0669,1.377735 -3.0669,3.13023 0,1.785555 1.37145,3.185355 3.1209,3.185355 0.756,0 1.46865,-0.28659 2.00865,-0.8046 0.4212,-0.40782 0.702,-0.82665 0.864,-1.322625 h -0.8316 c -0.3348,0.82662 -1.16625,1.377735 -2.06265,1.377735 -1.20945,0 -2.23545,-0.94791 -2.30025,-2.138265 h 5.3457 m -5.3241,-0.738465 c 0.216,-1.157325 1.1124,-1.939875 2.23545,-1.939875 1.1448,0 2.01945,0.738465 2.28945,1.939875 h -4.5249 m -3.842095,3.482925 h 0.79905 v -3.516 c 0,-1.12425 0.5616,-1.741485 1.673995,-1.85169 v -0.8046 c -0.853195,0.0441 -1.360795,0.341685 -1.673995,1.00299 v -0.85971 h -0.79905 v 6.02901 m -4.3617,-8.145225 h -0.7992 v 3.07512 c -0.5832,-0.716415 -1.39305,-1.102185 -2.32185,-1.102185 -1.78185,0 -3.1425,1.366725 -3.1425,3.163305 0,1.785555 1.39305,3.15228 3.2181,3.15228 0.9828,0 1.65225,-0.363735 2.24625,-1.23447 v 1.091175 h 0.7992 v -8.145225 m -3.14265,2.722425 c 1.3068,0 2.37585,1.06914 2.37585,2.391765 0,1.322625 -1.0368,2.42484 -2.30025,2.42484 -1.34985,0 -2.38665,-1.0581 -2.38665,-2.435865 0,-1.322625 1.026,-2.38074 2.31105,-2.38074 m -5.04555,5.4228 h 0.79905 v -6.02901 h -0.79905 v 6.02901 m 0,-6.756465 h 0.79905 v -1.38876 h -0.79905 v 1.38876 m -2.9466,6.756465 h 0.7992 v -5.29053 h 1.32825 v -0.73848 h -1.32825 v -2.116215 h -0.7992 v 2.116215 h -1.27425 v 0.73848 h 1.27425 v 5.29053 m -2.8749,0 h 0.7992 v -8.145225 h -0.7992 v 8.145225 m -2.15145,0 h 0.7992 v -8.145225 h -0.7992 v 8.145225 m -1.3671,-6.02901 h -0.79905 v 1.069125 c -0.5832,-0.83766 -1.3068,-1.212405 -2.33265,-1.212405 -1.7712,0 -3.11025,1.366725 -3.11025,3.17433 0,1.796565 1.34985,3.141255 3.16425,3.141255 1.00425,0 1.65225,-0.3417 2.27865,-1.201395 v 1.0581 h 0.79905 v -6.02901 m -3.1101,0.60621 c 1.29585,0 2.31105,1.036065 2.31105,2.38074 0,1.366725 -0.9936,2.435865 -2.26785,2.435865 -1.3392,0 -2.36505,-1.06914 -2.36505,-2.446875 0,-1.311615 1.03665,-2.36973 2.32185,-2.36973 M 225.01281,24.690416 h -2.1393 v 2.80416 c -1.56105,-2.197065 -3.498,-3.17997 -6.24435,-3.17997 -4.74105,0 -8.32575,3.5847 -8.32575,8.325735 0,4.71213 3.61365,8.23902 8.47035,8.23902 2.68845,0 4.42305,-0.896191 6.09975,-3.151065 v 2.77524 h 2.1393 v -15.81312 m -8.32575,1.589985 c 3.46905,0 6.18645,2.71743 6.18645,6.244305 0,3.584685 -2.65965,6.388844 -6.0708,6.388844 -3.5847,0 -6.33105,-2.804159 -6.33105,-6.41775 0,-3.440144 2.77515,-6.2154 6.2154,-6.2154 m -25.39275,14.223135 h 2.13915 V 31.80199 c 0,-1.763444 0.2313,-2.688524 0.83835,-3.5847 0.83835,-1.21416 2.3127,-1.93689 3.9894,-1.93689 1.56105,0 2.97765,0.636 3.84495,1.70562 0.75165,0.982905 1.0407,2.139255 1.0407,4.220685 v 8.29683 h 2.1393 v -8.29683 c 0,-2.659605 -0.3759,-4.07613 -1.38765,-5.434845 -1.2432,-1.56108 -3.15105,-2.457255 -5.37705,-2.457255 -2.0814,0 -3.75825,0.809445 -5.088,2.428336 v -2.052525 h -2.1393 v 15.81312 m -8.6952,0 h 2.1393 v -9.22191 c 0,-2.948685 1.5033,-4.56759 4.4808,-4.85667 v -2.11035 c -2.28375,0.11565 -3.64245,0.896175 -4.4808,2.6307 v -2.25489 h -2.1393 v 15.81312 m -2.95995,-7.19829 c 0,-2.16816 -0.28905,-3.49797 -1.06965,-4.88559 -1.41645,-2.515065 -4.1628,-4.10505 -7.1694,-4.10505 -4.59645,0 -8.2101,3.613605 -8.2101,8.2101 0,4.683225 3.6714,8.354655 8.3547,8.354655 2.02365,0 3.93165,-0.751636 5.37705,-2.110351 1.1274,-1.06962 1.87905,-2.16816 2.3127,-3.46905 h -2.226 c -0.8961,2.168146 -3.1221,3.61359 -5.52165,3.61359 -3.23775,0 -5.9841,-2.48616 -6.1575,-5.608304 h 14.30985 m -14.2521,-1.936891 c 0.57825,-3.035414 2.97765,-5.087955 5.98425,-5.087955 3.0642,0 5.40585,1.936906 6.12855,5.087955 h -12.1128 m -10.2852,9.13518 h 2.1393 v -9.22191 c 0,-2.948684 1.5033,-4.56759 4.4808,-4.85667 v -2.11035 c -2.28375,0.11565 -3.64245,0.896175 -4.4808,2.6307 v -2.25489 h -2.1393 v 15.81312 m -3.65955,-15.81312 h -2.13929 v 2.80416 c -1.56105,-2.197065 -3.498,-3.17997 -6.24435,-3.17997 -4.74106,0 -8.32576,3.5847 -8.32576,8.325735 0,4.71213 3.61365,8.23902 8.47036,8.23902 2.68845,0 4.42305,-0.89619 6.09975,-3.151065 v 2.77524 h 2.13929 v -15.81312 m -8.32574,1.589985 c 3.4689,0 6.18645,2.71743 6.18645,6.244305 0,3.584685 -2.65965,6.388845 -6.07095,6.388845 -3.58471,0 -6.33091,-2.80416 -6.33091,-6.41775 0,-3.440145 2.77515,-6.2154 6.21541,-6.2154 m -2.63071,-7.42956 v 3.64251 h 2.13916 v -3.64251 h -2.13916 m 4.24951,0 v 3.64251 h 2.1393 v -3.64251 h -2.1393 m -13.04146,5.839575 h -2.1393 V 39.40501 c 0,3.29559 -0.8094,4.451955 -3.2088,4.596495 v 2.052525 c 1.3875,-0.05775 2.37045,-0.37581 3.32445,-1.06962 1.53225,-1.156365 2.02365,-2.48616 2.02365,-5.5794 V 24.690415 m -2.1393,-1.90797 h 2.1393 v -3.64251 h -2.1393 v 3.64251 m -17.703,17.72109 h 2.1393 V 31.80199 c 0,-1.763445 0.2313,-2.688525 0.83835,-3.5847 0.83835,-1.21416 2.3127,-1.93689 3.9894,-1.93689 1.56105,0 2.97765,0.636 3.8448,1.70562 0.75165,0.982905 1.0407,2.139255 1.0407,4.220685 v 8.29683 h 2.1393 v -8.29683 c 0,-2.659605 -0.37575,-4.07613 -1.38765,-5.434845 -1.24305,-1.56108 -3.15105,-2.457255 -5.37705,-2.457255 -2.0814,0 -3.7581,0.809445 -5.08785,2.428335 v -2.052525 h -2.1393 v 15.81312 m -11.22525,-16.18893 c -4.683145,0 -8.296795,3.555795 -8.296795,8.181195 0,4.85667 3.5559,8.38356 8.470345,8.38356 4.6254,0 8.03655,-3.497985 8.03655,-8.23902 0,-4.827765 -3.46905,-8.325735 -8.2101,-8.325735 m 0,1.965795 c 3.46905,0 6.042,2.71743 6.042,6.388845 0,3.613605 -2.4861,6.244305 -5.92635,6.244305 -3.642445,0 -6.244195,-2.659605 -6.244195,-6.35994 0,-3.584685 2.6307,-6.27321 6.128545,-6.27321 M 87.177365,40.503535 h 2.1393 v -15.81312 h -2.1393 v 15.81312 m 0,-17.72109 h 2.1393 v -3.64251 h -2.1393 v 3.64251 m -16.73235,17.72109 h 2.1393 V 31.8598 h 4.10505 c 2.8908,0 4.452,-0.37581 5.7528,-1.329795 1.38765,-1.01181 2.1393,-2.775255 2.1393,-4.914495 0,-2.457255 -0.92505,-4.394145 -2.544,-5.34813 -1.32975,-0.80946 -2.9487,-1.127445 -5.69505,-1.127445 h -5.8974 v 21.3636 m 2.1393,-10.580625 v -8.846085 h 3.0354 c 2.4573,0 3.9894,0.20235 4.8567,0.635985 1.24305,0.636 1.9368,1.994715 1.9368,3.9027 0,1.647795 -0.6648,2.977605 -1.7634,3.584685 -0.8961,0.52035 -2.13915,0.722715 -4.10505,0.722715 h -3.96045"
     id="path3120"
     style="fill:#000000;stroke-width:1" />
</svg>
