<?xml version="1.0" encoding="UTF-8" standalone="no"?>
<svg
   xmlns:dc="http://purl.org/dc/elements/1.1/"
   xmlns:cc="http://creativecommons.org/ns#"
   xmlns:rdf="http://www.w3.org/1999/02/22-rdf-syntax-ns#"
   xmlns:svg="http://www.w3.org/2000/svg"
   xmlns="http://www.w3.org/2000/svg"
   id="pionjar-logotype"
   height="14.000002mm"
   width="44.350334mm"
   version="1.0">
  <metadata
     id="metadata11">
    <rdf:RDF>
      <cc:Work
         rdf:about="">
        <dc:format>image/svg+xml</dc:format>
        <dc:type
           rdf:resource="http://purl.org/dc/dcmitype/StillImage" />
        <dc:title></dc:title>
      </cc:Work>
    </rdf:RDF>
  </metadata>
  <defs
     id="defs9" />
  <path
     style="fill:#fffffe;fill-opacity:0;fill-rule:evenodd;stroke:#5f5f5f;stroke-width:0.91860563;stroke-opacity:1"
     id="path869"
     d="M 21.882743,41.988927 C 7.2271428,33.510147 9.4247428,29.530807 7.5754428,9.633887 10.890543,8.278757 16.752943,7.545927 21.868343,7.545917 c 5.1148,0 10.9772,0.73283 14.2924,2.08795 -1.8494,19.89693 0.3481,23.87627 -14.278,32.35506 z" />
  <path
     style="fill:none;stroke:#6a3121;stroke-width:1.97474062;stroke-linejoin:bevel"
     id="path871"
     d="m 15.288543,34.087707 6.6124,-1.21166 6.5058,1.21166" />
  <path
     style="fill:#e32500;fill-rule:evenodd;stroke-width:0;stroke-linecap:round"
     id="path872"
     d="m 22.092543,10.569887 c -11.5633,10.28292 -6.5705,22.76706 1.8705,19.91654 3.9044,-1.27003 7.5999,-8.0741 0.3343,-15.01636 2.7044,11.51086 -8.1513,12.95876 -2.2048,-4.90018 z" />
  <path
     style="fill:#000000"
     id="path3120"
     d="m 148.41164,38.055587 0.5327,0 0,-2.344 c 0,-0.7495 0.3744,-1.16099 1.1159,-1.23446 l 0,-0.5364 c -0.5687,0.0294 -0.9071,0.22779 -1.1159,0.66866 l 0,-0.57314 -0.5327,0 0,4.01934 m -0.9114,-4.01934 -0.5328,0 0,0.71275 c -0.3888,-0.55844 -0.8711,-0.80827 -1.5551,-0.80827 -1.1807,0 -2.0734,0.91115 -2.0734,2.11622 0,1.19771 0.8999,2.09417 2.1094,2.09417 0.6696,0 1.1015,-0.2278 1.5191,-0.80093 l 0,0.7054 0.5328,0 0,-4.01934 m -2.0735,0.40414 c 0.8639,0 1.5407,0.69071 1.5407,1.58716 0,0.91115 -0.6624,1.62391 -1.5119,1.62391 -0.8927,0 -1.5767,-0.71276 -1.5767,-1.63125 0,-0.87441 0.6912,-1.57982 1.5479,-1.57982 m -2.8498,-0.40414 -0.5327,0 0,0.71275 c -0.396,-0.55109 -0.8784,-0.80827 -1.5407,-0.80827 -1.1519,0 -2.0159,0.91115 -2.0159,2.12356 0,1.17568 0.9,2.08683 2.0519,2.08683 0.7055,0 1.1951,-0.29392 1.5047,-0.91115 l 0,0.27188 c 0,0.39678 -0.043,0.64661 -0.1584,0.89644 -0.2088,0.46293 -0.684,0.72745 -1.2887,0.72745 -0.4392,0 -0.7776,-0.13225 -1.0583,-0.40413 -0.1368,-0.12492 -0.216,-0.24248 -0.3888,-0.5511 l -0.5184,0 c 0.288,0.94054 0.9864,1.4549 1.9799,1.4549 0.6839,0 1.2599,-0.26453 1.5983,-0.7201 0.2664,-0.36741 0.3671,-0.79359 0.3671,-1.57981 l 0,-3.29925 m -2.0446,0.40414 c 0.8495,0 1.5119,0.68336 1.5119,1.55777 0,0.94054 -0.648,1.6533 -1.5047,1.6533 -0.864,0 -1.5119,-0.69807 -1.5119,-1.63125 0,-0.91849 0.6336,-1.57982 1.5047,-1.57982 m -6.2807,3.6152 0.5328,0 0,-2.21173 c 0,-0.44823 0.058,-0.68337 0.2088,-0.91116 0.2088,-0.30862 0.5759,-0.49231 0.9935,-0.49231 0.3888,0 0.7416,0.16166 0.9575,0.43353 0.1872,0.24983 0.2592,0.54376 0.2592,1.07281 l 0,2.10886 0.5328,0 0,-2.10886 c 0,-0.67602 -0.094,-1.03607 -0.3456,-1.38142 -0.3096,-0.39679 -0.7847,-0.62458 -1.3391,-0.62458 -0.5183,0 -0.9359,0.20574 -1.2671,0.61723 l 0,-0.52171 -0.5328,0 0,4.01934 m -1.4342,0 0.5327,0 0,-4.01934 -0.5327,0 0,4.01934 m 0,-4.50431 0.5327,0 0,-0.92584 -0.5327,0 0,0.92584 m -4.3872,4.50431 0.5327,0 0,-2.21173 c 0,-0.44823 0.058,-0.68337 0.2088,-0.91116 0.2088,-0.30862 0.576,-0.49231 0.9935,-0.49231 0.3888,0 0.7416,0.16166 0.9576,0.43353 0.1872,0.24983 0.2592,0.54376 0.2592,1.07281 l 0,2.10886 0.5327,0 0,-2.10886 c 0,-0.67602 -0.094,-1.03607 -0.3456,-1.38142 -0.3095,-0.39679 -0.7847,-0.62458 -1.3391,-0.62458 -0.5183,0 -0.9359,0.20574 -1.2671,0.61723 l 0,-0.52171 -0.5327,0 0,4.01934 m -2.1655,0 0.5328,0 0,-2.344 c 0,-0.7495 0.3743,-1.16099 1.1159,-1.23446 l 0,-0.5364 c -0.5688,0.0294 -0.9072,0.22779 -1.1159,0.66866 l 0,-0.57314 -0.5328,0 0,4.01934 m -0.9114,-4.01934 -0.5328,0 0,0.71275 c -0.3887,-0.55844 -0.8711,-0.80827 -1.5551,-0.80827 -1.1807,0 -2.0734,0.91115 -2.0734,2.11622 0,1.19771 0.8999,2.09417 2.1094,2.09417 0.6696,0 1.1016,-0.2278 1.5191,-0.80093 l 0,0.7054 0.5328,0 0,-4.01934 m -2.0735,0.40414 c 0.864,0 1.5407,0.69071 1.5407,1.58716 0,0.91115 -0.6623,1.62391 -1.5119,1.62391 -0.8927,0 -1.5767,-0.71276 -1.5767,-1.63125 0,-0.87441 0.6912,-1.57982 1.5479,-1.57982 m -0.6551,-1.88843 0,0.92584 0.5327,0 0,-0.92584 -0.5327,0 m 1.0583,0 0,0.92584 0.5328,0 0,-0.92584 -0.5328,0 m -3.2529,1.48429 -0.5328,0 0,0.71275 c -0.396,-0.55109 -0.8783,-0.80827 -1.5407,-0.80827 -1.1519,0 -2.0158,0.91115 -2.0158,2.12356 0,1.17568 0.8999,2.08683 2.0518,2.08683 0.7056,0 1.1951,-0.29392 1.5047,-0.91115 l 0,0.27188 c 0,0.39678 -0.043,0.64661 -0.1584,0.89644 -0.2088,0.46293 -0.6839,0.72745 -1.2887,0.72745 -0.4392,0 -0.7775,-0.13225 -1.0583,-0.40413 -0.1368,-0.12492 -0.216,-0.24248 -0.3888,-0.5511 l -0.5184,0 c 0.288,0.94054 0.9864,1.4549 1.9799,1.4549 0.684,0 1.2599,-0.26453 1.5983,-0.7201 0.2664,-0.36741 0.3672,-0.79359 0.3672,-1.57981 l 0,-3.29925 m -2.0447,0.40414 c 0.8496,0 1.5119,0.68336 1.5119,1.55777 0,0.94054 -0.6479,1.6533 -1.5047,1.6533 -0.8639,0 -1.5119,-0.69807 -1.5119,-1.63125 0,-0.91849 0.6336,-1.57982 1.5047,-1.57982 m -4.8016,-0.40414 -0.5328,0 0,0.71275 c -0.3887,-0.55844 -0.8711,-0.80827 -1.555,-0.80827 -1.1808,0 -2.0735,0.91115 -2.0735,2.11622 0,1.19771 0.8999,2.09417 2.1094,2.09417 0.6696,0 1.1016,-0.2278 1.5191,-0.80093 l 0,0.7054 0.5328,0 0,-4.01934 m -2.0735,0.40414 c 0.864,0 1.5407,0.69071 1.5407,1.58716 0,0.91115 -0.6623,1.62391 -1.5119,1.62391 -0.8927,0 -1.5766,-0.71276 -1.5766,-1.63125 0,-0.87441 0.6911,-1.57982 1.5478,-1.57982 m -2.8477,-1.81495 -0.5327,0 0,2.05008 c -0.3888,-0.47761 -0.9288,-0.73479 -1.5479,-0.73479 -1.1879,0 -2.0951,0.91115 -2.0951,2.10887 0,1.19037 0.9287,2.10152 2.1454,2.10152 0.6552,0 1.1016,-0.24249 1.4976,-0.82298 l 0,0.72745 0.5327,0 0,-5.43015 m -2.095,1.81495 c 0.8711,0 1.5838,0.71276 1.5838,1.59451 0,0.88175 -0.6911,1.61656 -1.5334,1.61656 -0.9,0 -1.5911,-0.7054 -1.5911,-1.62391 0,-0.88175 0.6839,-1.58716 1.5407,-1.58716 m -4.725,-0.49966 c -1.1664,0 -2.066297,0.9038 -2.066297,2.07948 0,1.23445 0.885497,2.13091 2.109397,2.13091 1.152,0 2.0015,-0.8891 2.0015,-2.09417 0,-1.22711 -0.8639,-2.11622 -2.0446,-2.11622 m 0,0.49966 c 0.8639,0 1.5046,0.69071 1.5046,1.6239 0,0.91849 -0.6191,1.58717 -1.4758,1.58717 -0.9072,0 -1.5551,-0.67602 -1.5551,-1.61656 0,-0.91115 0.6551,-1.59451 1.5263,-1.59451 m -2.828197,-0.40414 -0.5328,0 0,0.71275 c -0.3959,-0.55109 -0.8783,-0.80827 -1.5407,-0.80827 -1.1519,0 -2.0158,0.91115 -2.0158,2.12356 0,1.17568 0.8999,2.08683 2.0518,2.08683 0.7056,0 1.1952,-0.29392 1.5047,-0.91115 l 0,0.27188 c 0,0.39678 -0.043,0.64661 -0.1584,0.89644 -0.2087,0.46293 -0.6839,0.72745 -1.2887,0.72745 -0.4391,0 -0.7775,-0.13225 -1.0583,-0.40413 -0.1368,-0.12492 -0.216,-0.24248 -0.3888,-0.5511 l -0.5183,0 c 0.288,0.94054 0.9863,1.4549 1.9798,1.4549 0.684,0 1.26,-0.26453 1.5983,-0.7201 0.2664,-0.36741 0.3672,-0.79359 0.3672,-1.57981 l 0,-3.29925 m -2.0447,0.40414 c 0.8496,0 1.5119,0.68336 1.5119,1.55777 0,0.94054 -0.6479,1.6533 -1.5047,1.6533 -0.8639,0 -1.5119,-0.69807 -1.5119,-1.63125 0,-0.91849 0.6336,-1.57982 1.5047,-1.57982 m -6.0556,3.6152 0.5327,0 0,-2.344 c 0,-0.7495 0.3744,-1.16099 1.1159,-1.23446 l 0,-0.5364 c -0.5687,0.0294 -0.9071,0.22779 -1.1159,0.66866 l 0,-0.57314 -0.5327,0 0,4.01934 m -2.7956,-4.11486 c -1.1663,0 -2.0662,0.9038 -2.0662,2.07948 0,1.23445 0.8855,2.13091 2.1094,2.13091 1.1519,0 2.0015,-0.8891 2.0015,-2.09417 0,-1.22711 -0.864,-2.11622 -2.0447,-2.11622 m 0,0.49966 c 0.864,0 1.5047,0.69071 1.5047,1.6239 0,0.91849 -0.6191,1.58717 -1.4759,1.58717 -0.9071,0 -1.5551,-0.67602 -1.5551,-1.61656 0,-0.91115 0.6552,-1.59451 1.5263,-1.59451 m -0.8063,-1.88843 0,0.92584 0.5327,0 0,-0.92584 -0.5327,0 m 1.0583,0 0,0.92584 0.5328,0 0,-0.92584 -0.5328,0 m -4.1574,5.50363 0.5328,0 0,-3.52702 0.9791,0 0,-0.49232 -0.9791,0 c -0.01,-0.66866 0.252,-0.91115 0.9791,-0.9185 l 0,-0.49231 c -1.0151,0 -1.5263,0.47762 -1.5119,1.41081 l -0.6119,0 0,0.49232 0.6119,0 0,3.52702 m -5.0658,-4.11486 c -1.1663,0 -2.0663,0.9038 -2.0663,2.07948 0,1.23445 0.8856,2.13091 2.1095,2.13091 1.1519,0 2.0014,-0.8891 2.0014,-2.09417 0,-1.22711 -0.8639,-2.11622 -2.0446,-2.11622 m 0,0.49966 c 0.8639,0 1.5047,0.69071 1.5047,1.6239 0,0.91849 -0.6192,1.58717 -1.4759,1.58717 -0.9072,0 -1.5551,-0.67602 -1.5551,-1.61656 0,-0.91115 0.6551,-1.59451 1.5263,-1.59451 m -2.8262,-1.81495 -0.5327,0 0,2.05008 c -0.3888,-0.47761 -0.9288,-0.73479 -1.5479,-0.73479 -1.1879,0 -2.0951,0.91115 -2.0951,2.10887 0,1.19037 0.9288,2.10152 2.1455,2.10152 0.6551,0 1.1015,-0.24249 1.4975,-0.82298 l 0,0.72745 0.5327,0 0,-5.43015 m -2.095,1.81495 c 0.8711,0 1.5839,0.71276 1.5839,1.59451 0,0.88175 -0.6912,1.61656 -1.5335,1.61656 -0.8999,0 -1.5911,-0.7054 -1.5911,-1.62391 0,-0.88175 0.6839,-1.58716 1.5407,-1.58716 m -2.6666,1.78556 c 0,-0.5511 -0.072,-0.88911 -0.2664,-1.24181 -0.3528,-0.63927 -1.0367,-1.04341 -1.7855,-1.04341 -1.1447,0 -2.0446,0.91849 -2.0446,2.08682 0,1.19037 0.9143,2.12357 2.0806,2.12357 0.504,0 0.9791,-0.19106 1.3391,-0.5364 0.2808,-0.27188 0.468,-0.5511 0.576,-0.88175 l -0.5544,0 c -0.2232,0.55108 -0.7775,0.91849 -1.3751,0.91849 -0.8063,0 -1.4903,-0.63194 -1.5335,-1.42551 l 3.5638,0 m -3.5494,-0.49231 c 0.144,-0.77155 0.7416,-1.29325 1.4903,-1.29325 0.7632,0 1.3463,0.49231 1.5263,1.29325 l -3.0166,0 m -2.5614,2.32195 0.5327,0 0,-2.344 c 0,-0.7495 0.3744,-1.16099 1.116,-1.23446 l 0,-0.5364 c -0.5688,0.0294 -0.9072,0.22779 -1.116,0.66866 l 0,-0.57314 -0.5327,0 0,4.01934 m -2.9078,-5.43015 -0.5328,0 0,2.05008 c -0.3888,-0.47761 -0.9287,-0.73479 -1.5479,-0.73479 -1.1879,0 -2.095,0.91115 -2.095,2.10887 0,1.19037 0.9287,2.10152 2.1454,2.10152 0.6552,0 1.1015,-0.24249 1.4975,-0.82298 l 0,0.72745 0.5328,0 0,-5.43015 m -2.0951,1.81495 c 0.8712,0 1.5839,0.71276 1.5839,1.59451 0,0.88175 -0.6912,1.61656 -1.5335,1.61656 -0.8999,0 -1.5911,-0.7054 -1.5911,-1.62391 0,-0.88175 0.684,-1.58716 1.5407,-1.58716 m -3.3637,3.6152 0.5327,0 0,-4.01934 -0.5327,0 0,4.01934 m 0,-4.50431 0.5327,0 0,-0.92584 -0.5327,0 0,0.92584 m -1.9644,4.50431 0.5328,0 0,-3.52702 0.8855,0 0,-0.49232 -0.8855,0 0,-1.41081 -0.5328,0 0,1.41081 -0.8495,0 0,0.49232 0.8495,0 0,3.52702 m -1.9166,0 0.5328,0 0,-5.43015 -0.5328,0 0,5.43015 m -1.4343,0 0.5328,0 0,-5.43015 -0.5328,0 0,5.43015 m -0.9114,-4.01934 -0.5327,0 0,0.71275 c -0.3888,-0.55844 -0.8712,-0.80827 -1.5551,-0.80827 -1.1808,0 -2.0735,0.91115 -2.0735,2.11622 0,1.19771 0.8999,2.09417 2.1095,2.09417 0.6695,0 1.1015,-0.2278 1.5191,-0.80093 l 0,0.7054 0.5327,0 0,-4.01934 m -2.0734,0.40414 c 0.8639,0 1.5407,0.69071 1.5407,1.58716 0,0.91115 -0.6624,1.62391 -1.5119,1.62391 -0.8928,0 -1.5767,-0.71276 -1.5767,-1.63125 0,-0.87441 0.6911,-1.57982 1.5479,-1.57982 m 101.226497,-17.98011 -1.4262,0 0,1.86944 c -1.0407,-1.46471 -2.332,-2.11998 -4.1629,-2.11998 -3.1607,0 -5.5505,2.3898 -5.5505,5.55049 0,3.14142 2.4091,5.49268 5.6469,5.49268 1.7923,0 2.9487,-0.59746 4.0665,-2.10071 l 0,1.85016 1.4262,0 0,-10.54208 m -5.5505,1.05999 c 2.3127,0 4.1243,1.81162 4.1243,4.16287 0,2.38979 -1.7731,4.25923 -4.0472,4.25923 -2.3898,0 -4.2207,-1.86944 -4.2207,-4.2785 0,-2.29343 1.8501,-4.1436 4.1436,-4.1436 m -16.9285,9.48209 1.4261,0 0,-5.80103 c 0,-1.17563 0.1542,-1.79235 0.5589,-2.3898 0.5589,-0.80944 1.5418,-1.29126 2.6596,-1.29126 1.0407,0 1.9851,0.424 2.5633,1.13708 0.5011,0.65527 0.6938,1.42617 0.6938,2.81379 l 0,5.53122 1.4262,0 0,-5.53122 c 0,-1.77307 -0.2506,-2.71742 -0.9251,-3.62323 -0.8288,-1.04072 -2.1007,-1.63817 -3.5847,-1.63817 -1.3876,0 -2.5055,0.53963 -3.392,1.61889 l 0,-1.36835 -1.4262,0 0,10.54208 m -5.7968,0 1.4262,0 0,-6.14794 c 0,-1.96579 1.0022,-3.04506 2.9872,-3.23778 l 0,-1.4069 c -1.5225,0.0771 -2.4283,0.59745 -2.9872,1.7538 l 0,-1.50326 -1.4262,0 0,10.54208 m -1.9733,-4.79886 c 0,-1.44544 -0.1927,-2.33198 -0.7131,-3.25706 -0.9443,-1.67671 -2.7752,-2.7367 -4.7796,-2.7367 -3.0643,0 -5.4734,2.40907 -5.4734,5.4734 0,3.12215 2.4476,5.56977 5.5698,5.56977 1.3491,0 2.6211,-0.50109 3.5847,-1.4069 0.7516,-0.71308 1.2527,-1.44544 1.5418,-2.3127 l -1.484,0 c -0.5974,1.44543 -2.0814,2.40906 -3.6811,2.40906 -2.1585,0 -3.9894,-1.65744 -4.105,-3.73887 l 9.5399,0 m -9.5014,-1.29126 c 0.3855,-2.02361 1.9851,-3.39197 3.9895,-3.39197 2.0428,0 3.6039,1.29127 4.0857,3.39197 l -8.0752,0 m -6.8568,6.09012 1.4262,0 0,-6.14794 c 0,-1.96579 1.0022,-3.04506 2.9872,-3.23778 l 0,-1.4069 c -1.5225,0.0771 -2.4283,0.59745 -2.9872,1.7538 l 0,-1.50326 -1.4262,0 0,10.54208 m -2.4397,-10.54208 -1.426197,0 0,1.86944 c -1.0407,-1.46471 -2.332,-2.11998 -4.1629,-2.11998 -3.1607,0 -5.5505,2.3898 -5.5505,5.55049 0,3.14142 2.4091,5.49268 5.6469,5.49268 1.7923,0 2.9487,-0.59746 4.0665,-2.10071 l 0,1.85016 1.426197,0 0,-10.54208 m -5.550497,1.05999 c 2.3126,0 4.1243,1.81162 4.1243,4.16287 0,2.38979 -1.7731,4.25923 -4.0473,4.25923 -2.3898,0 -4.2206,-1.86944 -4.2206,-4.2785 0,-2.29343 1.8501,-4.1436 4.1436,-4.1436 m -1.7538,-4.95304 0,2.42834 1.4261,0 0,-2.42834 -1.4261,0 m 2.833,0 0,2.42834 1.4262,0 0,-2.42834 -1.4262,0 m -8.6943,3.89305 -1.4262,0 0,9.80973 c 0,2.19706 -0.5396,2.96797 -2.1392,3.06433 l 0,1.36835 c 0.925,-0.0385 1.5803,-0.25054 2.2163,-0.71308 1.0215,-0.77091 1.3491,-1.65744 1.3491,-3.7196 l 0,-9.80973 m -1.4262,-1.27198 1.4262,0 0,-2.42834 -1.4262,0 0,2.42834 m -11.802,11.81406 1.4262,0 0,-5.80103 c 0,-1.17563 0.1542,-1.79235 0.5589,-2.3898 0.5589,-0.80944 1.5418,-1.29126 2.6596,-1.29126 1.0407,0 1.9851,0.424 2.5632,1.13708 0.5011,0.65527 0.6938,1.42617 0.6938,2.81379 l 0,5.53122 1.4262,0 0,-5.53122 c 0,-1.77307 -0.2505,-2.71742 -0.9251,-3.62323 -0.8287,-1.04072 -2.1007,-1.63817 -3.5847,-1.63817 -1.3876,0 -2.5054,0.53963 -3.3919,1.61889 l 0,-1.36835 -1.4262,0 0,10.54208 m -7.4835,-10.79262 c -3.1221,0 -5.5312,2.37053 -5.5312,5.45413 0,3.23778 2.3706,5.58904 5.6469,5.58904 3.0836,0 5.3577,-2.33199 5.3577,-5.49268 0,-3.21851 -2.3127,-5.55049 -5.4734,-5.55049 m 0,1.31053 c 2.3127,0 4.028,1.81162 4.028,4.25923 0,2.40907 -1.6574,4.16287 -3.9509,4.16287 -2.4283,0 -4.1628,-1.77307 -4.1628,-4.23996 0,-2.38979 1.7538,-4.18214 4.0857,-4.18214 m -8.9659,9.48209 1.4262,0 0,-10.54208 -1.4262,0 0,10.54208 m 0,-11.81406 1.4262,0 0,-2.42834 -1.4262,0 0,2.42834 m -11.1549,11.81406 1.4262,0 0,-5.76249 2.7367,0 c 1.9272,0 2.968,-0.25054 3.8352,-0.88653 0.9251,-0.67454 1.4262,-1.85017 1.4262,-3.27633 0,-1.63817 -0.6167,-2.92943 -1.696,-3.56542 -0.8865,-0.53964 -1.9658,-0.75163 -3.7967,-0.75163 l -3.9316,0 0,14.2424 m 1.4262,-7.05375 0,-5.89739 2.0236,0 c 1.6382,0 2.6596,0.1349 3.2378,0.42399 0.8287,0.424 1.2912,1.32981 1.2912,2.6018 0,1.09853 -0.4432,1.98507 -1.1756,2.38979 -0.5974,0.3469 -1.4261,0.48181 -2.7367,0.48181 l -2.6403,0" />
</svg>
