<?xml version="1.0" encoding="UTF-8" standalone="no"?>
<svg
   xmlns:dc="http://purl.org/dc/elements/1.1/"
   xmlns:cc="http://creativecommons.org/ns#"
   xmlns:rdf="http://www.w3.org/1999/02/22-rdf-syntax-ns#"
   xmlns:svg="http://www.w3.org/2000/svg"
   xmlns="http://www.w3.org/2000/svg"
   version="1.0"
   width="88.700668mm"
   height="28.000006mm"
   id="pionjar-logotype">
  <metadata
     id="metadata11">
    <rdf:RDF>
      <cc:Work
         rdf:about="">
        <dc:format>image/svg+xml</dc:format>
        <dc:type
           rdf:resource="http://purl.org/dc/dcmitype/StillImage" />
        <dc:title></dc:title>
      </cc:Work>
    </rdf:RDF>
  </metadata>
  <defs
     id="defs9" />
  <path
     d="m 43.765486,83.977854 c -29.3112,-16.95756 -24.916,-24.91624 -28.6146,-64.71008 6.6302,-2.71026 18.355,-4.17592 28.5858,-4.17594 10.2296,0 21.9544,1.46566 28.5848,4.1759 -3.6988,39.79386 0.6962,47.75254 -28.556,64.71012 z"
     id="path869"
     style="fill:#fffffe;fill-opacity:0;fill-rule:evenodd;stroke:#5f5f5f;stroke-width:0.91860563;stroke-opacity:1" />
  <path
     d="m 30.577086,68.175414 13.2248,-2.42332 13.0116,2.42332"
     id="path871"
     style="fill:none;stroke:#6a3121;stroke-width:1.97474062;stroke-linejoin:bevel" />
  <path
     d="m 44.185086,21.139774 c -23.1266,20.56584 -13.141,45.53412 3.741,39.83308 7.8088,-2.54006 15.1998,-16.1482 0.6686,-30.03272 5.4088,23.02172 -16.3026,25.91752 -4.4096,-9.80036 z"
     id="path872"
     style="fill:#e32500;fill-rule:evenodd;stroke-width:0;stroke-linecap:round" />
  <path
     d="m 296.82328,76.111174 h 1.0654 v -4.688 c 0,-1.499 0.7488,-2.32198 2.2318,-2.46892 v -1.0728 c -1.1374,0.0588 -1.8142,0.45558 -2.2318,1.33732 v -1.14628 h -1.0654 v 8.03868 m -1.8228,-8.03868 h -1.0656 v 1.4255 c -0.7776,-1.11688 -1.7422,-1.61654 -3.1102,-1.61654 -2.3614,0 -4.1468,1.8223 -4.1468,4.23244 0,2.39542 1.7998,4.18834 4.2188,4.18834 1.3392,0 2.203,-0.4556 3.0382,-1.60186 v 1.4108 h 1.0656 v -8.03868 m -4.147,0.80828 c 1.7278,0 3.0814,1.38142 3.0814,3.17432 0,1.8223 -1.3248,3.24782 -3.0238,3.24782 -1.7854,0 -3.1534,-1.42552 -3.1534,-3.2625 0,-1.74882 1.3824,-3.15964 3.0958,-3.15964 m -5.6996,-0.80828 h -1.0654 v 1.4255 c -0.792,-1.10218 -1.7568,-1.61654 -3.0814,-1.61654 -2.3038,0 -4.0318,1.8223 -4.0318,4.24712 0,2.35136 1.8,4.17366 4.1038,4.17366 1.411,0 2.3902,-0.58784 3.0094,-1.8223 v 0.54376 c 0,0.79356 -0.086,1.29322 -0.3168,1.79288 -0.4176,0.92586 -1.368,1.4549 -2.5774,1.4549 -0.8784,0 -1.5552,-0.2645 -2.1166,-0.80826 -0.2736,-0.24984 -0.432,-0.48496 -0.7776,-1.1022 h -1.0368 c 0.576,1.88108 1.9728,2.9098 3.9598,2.9098 1.3678,0 2.5198,-0.52906 3.1966,-1.4402 0.5328,-0.73482 0.7342,-1.58718 0.7342,-3.15962 v -6.5985 m -4.0892,0.80828 c 1.699,0 3.0238,1.36672 3.0238,3.11554 0,1.88108 -1.296,3.3066 -3.0094,3.3066 -1.728,0 -3.0238,-1.39614 -3.0238,-3.2625 0,-1.83698 1.2672,-3.15964 3.0094,-3.15964 m -12.5614,7.2304 h 1.0656 v -4.42346 c 0,-0.89646 0.116,-1.36674 0.4176,-1.82232 0.4176,-0.61724 1.1518,-0.98462 1.987,-0.98462 0.7776,0 1.4832,0.32332 1.915,0.86706 0.3744,0.49966 0.5184,1.08752 0.5184,2.14562 v 4.21772 h 1.0656 v -4.21772 c 0,-1.35204 -0.188,-2.07214 -0.6912,-2.76284 -0.6192,-0.79358 -1.5694,-1.24916 -2.6782,-1.24916 -1.0366,0 -1.8718,0.41148 -2.5342,1.23446 v -1.04342 h -1.0656 v 8.03868 m -2.8684,0 h 1.0654 v -8.03868 h -1.0654 v 8.03868 m 0,-9.00862 h 1.0654 v -1.85168 h -1.0654 v 1.85168 m -8.7744,9.00862 h 1.0654 v -4.42346 c 0,-0.89646 0.116,-1.36674 0.4176,-1.82232 0.4176,-0.61724 1.152,-0.98462 1.987,-0.98462 0.7776,0 1.4832,0.32332 1.9152,0.86706 0.3744,0.49966 0.5184,1.08752 0.5184,2.14562 v 4.21772 h 1.0654 v -4.21772 c 0,-1.35204 -0.188,-2.07214 -0.6912,-2.76284 -0.619,-0.79358 -1.5694,-1.24916 -2.6782,-1.24916 -1.0366,0 -1.8718,0.41148 -2.5342,1.23446 v -1.04342 h -1.0654 v 8.03868 m -4.331,0 h 1.0656 v -4.688 c 0,-1.499 0.7486,-2.32198 2.2318,-2.46892 v -1.0728 c -1.1376,0.0588 -1.8144,0.45558 -2.2318,1.33732 v -1.14628 h -1.0656 v 8.03868 m -1.8228,-8.03868 h -1.0656 v 1.4255 c -0.7774,-1.11688 -1.7422,-1.61654 -3.1102,-1.61654 -2.3614,0 -4.1468,1.8223 -4.1468,4.23244 0,2.39542 1.7998,4.18834 4.2188,4.18834 1.3392,0 2.2032,-0.4556 3.0382,-1.60186 v 1.4108 h 1.0656 v -8.03868 m -4.147,0.80828 c 1.728,0 3.0814,1.38142 3.0814,3.17432 0,1.8223 -1.3246,3.24782 -3.0238,3.24782 -1.7854,0 -3.1534,-1.42552 -3.1534,-3.2625 0,-1.74882 1.3824,-3.15964 3.0958,-3.15964 m -1.3102,-3.77686 v 1.85168 h 1.0654 v -1.85168 h -1.0654 m 2.1166,0 v 1.85168 h 1.0656 v -1.85168 h -1.0656 m -6.5058,2.96858 h -1.0656 v 1.4255 c -0.792,-1.10218 -1.7566,-1.61654 -3.0814,-1.61654 -2.3038,0 -4.0316,1.8223 -4.0316,4.24712 0,2.35136 1.7998,4.17366 4.1036,4.17366 1.4112,0 2.3902,-0.58784 3.0094,-1.8223 v 0.54376 c 0,0.79356 -0.086,1.29322 -0.3168,1.79288 -0.4176,0.92586 -1.3678,1.4549 -2.5774,1.4549 -0.8784,0 -1.555,-0.2645 -2.1166,-0.80826 -0.2736,-0.24984 -0.432,-0.48496 -0.7776,-1.1022 h -1.0368 c 0.576,1.88108 1.9728,2.9098 3.9598,2.9098 1.368,0 2.5198,-0.52906 3.1966,-1.4402 0.5328,-0.73482 0.7344,-1.58718 0.7344,-3.15962 v -6.5985 m -4.0894,0.80828 c 1.6992,0 3.0238,1.36672 3.0238,3.11554 0,1.88108 -1.2958,3.3066 -3.0094,3.3066 -1.7278,0 -3.0238,-1.39614 -3.0238,-3.2625 0,-1.83698 1.2672,-3.15964 3.0094,-3.15964 m -9.6032,-0.80828 h -1.0656 v 1.4255 c -0.7774,-1.11688 -1.7422,-1.61654 -3.11,-1.61654 -2.3616,0 -4.147,1.8223 -4.147,4.23244 0,2.39542 1.7998,4.18834 4.2188,4.18834 1.3392,0 2.2032,-0.4556 3.0382,-1.60186 v 1.4108 h 1.0656 v -8.03868 m -4.147,0.80828 c 1.728,0 3.0814,1.38142 3.0814,3.17432 0,1.8223 -1.3246,3.24782 -3.0238,3.24782 -1.7854,0 -3.1532,-1.42552 -3.1532,-3.2625 0,-1.74882 1.3822,-3.15964 3.0956,-3.15964 m -5.6954,-3.6299 h -1.0654 v 4.10016 c -0.7776,-0.95522 -1.8576,-1.46958 -3.0958,-1.46958 -2.3758,0 -4.1902,1.8223 -4.1902,4.21774 0,2.38074 1.8574,4.20304 4.2908,4.20304 1.3104,0 2.2032,-0.48498 2.9952,-1.64596 v 1.4549 h 1.0654 v -10.8603 m -4.19,3.6299 c 1.7422,0 3.1676,1.42552 3.1676,3.18902 0,1.7635 -1.3822,3.23312 -3.0668,3.23312 -1.8,0 -3.1822,-1.4108 -3.1822,-3.24782 0,-1.7635 1.3678,-3.17432 3.0814,-3.17432 m -9.45,-0.99932 c -2.3328,0 -4.1326,1.8076 -4.1326,4.15896 0,2.4689 1.771,4.26182 4.2188,4.26182 2.304,0 4.003,-1.7782 4.003,-4.18834 0,-2.45422 -1.7278,-4.23244 -4.0892,-4.23244 m 0,0.99932 c 1.7278,0 3.0092,1.38142 3.0092,3.2478 0,1.83698 -1.2382,3.17434 -2.9516,3.17434 -1.8144,0 -3.1102,-1.35204 -3.1102,-3.23312 0,-1.8223 1.3102,-3.18902 3.0526,-3.18902 m -5.6564,-0.80828 h -1.0656 v 1.4255 c -0.7918,-1.10218 -1.7566,-1.61654 -3.0814,-1.61654 -2.3038,0 -4.0316,1.8223 -4.0316,4.24712 0,2.35136 1.7998,4.17366 4.1036,4.17366 1.4112,0 2.3904,-0.58784 3.0094,-1.8223 v 0.54376 c 0,0.79356 -0.086,1.29322 -0.3168,1.79288 -0.4174,0.92586 -1.3678,1.4549 -2.5774,1.4549 -0.8782,0 -1.555,-0.2645 -2.1166,-0.80826 -0.2736,-0.24984 -0.432,-0.48496 -0.7776,-1.1022 h -1.0366 c 0.576,1.88108 1.9726,2.9098 3.9596,2.9098 1.368,0 2.52,-0.52906 3.1966,-1.4402 0.5328,-0.73482 0.7344,-1.58718 0.7344,-3.15962 v -6.5985 m -4.0894,0.80828 c 1.6992,0 3.0238,1.36672 3.0238,3.11554 0,1.88108 -1.2958,3.3066 -3.0094,3.3066 -1.7278,0 -3.0238,-1.39614 -3.0238,-3.2625 0,-1.83698 1.2672,-3.15964 3.0094,-3.15964 m -12.11119,7.2304 h 1.0654 v -4.688 c 0,-1.499 0.7488,-2.32198 2.23179,-2.46892 v -1.0728 c -1.1374,0.0588 -1.81419,0.45558 -2.23179,1.33732 v -1.14628 h -1.0654 v 8.03868 m -5.5912,-8.22972 c -2.3326,0 -4.1324,1.8076 -4.1324,4.15896 0,2.4689 1.771,4.26182 4.2188,4.26182 2.3038,0 4.003,-1.7782 4.003,-4.18834 0,-2.45422 -1.728,-4.23244 -4.0894,-4.23244 m 0,0.99932 c 1.728,0 3.0094,1.38142 3.0094,3.2478 0,1.83698 -1.2382,3.17434 -2.9518,3.17434 -1.8142,0 -3.1102,-1.35204 -3.1102,-3.23312 0,-1.8223 1.3104,-3.18902 3.0526,-3.18902 m -1.6126,-3.77686 v 1.85168 h 1.0654 v -1.85168 h -1.0654 m 2.1166,0 v 1.85168 h 1.0656 v -1.85168 h -1.0656 m -8.3148,11.00726 h 1.0656 v -7.05404 h 1.9582 v -0.98464 h -1.9582 c -0.02,-1.33732 0.504,-1.8223 1.9582,-1.837 v -0.98462 c -2.0302,0 -3.0526,0.95524 -3.0238,2.82162 h -1.2238 v 0.98464 h 1.2238 v 7.05404 m -10.1316,-8.22972 c -2.3326,0 -4.1326,1.8076 -4.1326,4.15896 0,2.4689 1.7712,4.26182 4.219,4.26182 2.3038,0 4.0028,-1.7782 4.0028,-4.18834 0,-2.45422 -1.7278,-4.23244 -4.0892,-4.23244 m 0,0.99932 c 1.7278,0 3.0094,1.38142 3.0094,3.2478 0,1.83698 -1.2384,3.17434 -2.9518,3.17434 -1.8144,0 -3.1102,-1.35204 -3.1102,-3.23312 0,-1.8223 1.3102,-3.18902 3.0526,-3.18902 m -5.6524,-3.6299 h -1.0654 v 4.10016 c -0.7776,-0.95522 -1.8576,-1.46958 -3.0958,-1.46958 -2.3758,0 -4.1902,1.8223 -4.1902,4.21774 0,2.38074 1.8576,4.20304 4.291,4.20304 1.3102,0 2.203,-0.48498 2.995,-1.64596 v 1.4549 h 1.0654 v -10.8603 m -4.19,3.6299 c 1.7422,0 3.1678,1.42552 3.1678,3.18902 0,1.7635 -1.3824,3.23312 -3.067,3.23312 -1.7998,0 -3.1822,-1.4108 -3.1822,-3.24782 0,-1.7635 1.3678,-3.17432 3.0814,-3.17432 m -5.3332,3.57112 c 0,-1.1022 -0.144,-1.77822 -0.5328,-2.48362 -0.7056,-1.27854 -2.0734,-2.08682 -3.571,-2.08682 -2.2894,0 -4.0892,1.83698 -4.0892,4.17364 0,2.38074 1.8286,4.24714 4.1612,4.24714 1.008,0 1.9582,-0.38212 2.6782,-1.0728 0.5616,-0.54376 0.936,-1.1022 1.152,-1.7635 h -1.1088 c -0.4464,1.10216 -1.555,1.83698 -2.7502,1.83698 -1.6126,0 -2.9806,-1.26388 -3.067,-2.85102 h 7.1276 m -7.0988,-0.98462 c 0.288,-1.5431 1.4832,-2.5865 2.9806,-2.5865 1.5264,0 2.6926,0.98462 3.0526,2.5865 h -6.0332 m -5.1228,4.6439 h 1.0654 v -4.688 c 0,-1.499 0.7488,-2.32198 2.232,-2.46892 v -1.0728 c -1.1376,0.0588 -1.8144,0.45558 -2.232,1.33732 v -1.14628 h -1.0654 v 8.03868 m -5.8156,-10.8603 h -1.0656 v 4.10016 c -0.7776,-0.95522 -1.8574,-1.46958 -3.0958,-1.46958 -2.3758,0 -4.19,1.8223 -4.19,4.21774 0,2.38074 1.8574,4.20304 4.2908,4.20304 1.3104,0 2.203,-0.48498 2.995,-1.64596 v 1.4549 h 1.0656 v -10.8603 m -4.1902,3.6299 c 1.7424,0 3.1678,1.42552 3.1678,3.18902 0,1.7635 -1.3824,3.23312 -3.067,3.23312 -1.7998,0 -3.1822,-1.4108 -3.1822,-3.24782 0,-1.7635 1.368,-3.17432 3.0814,-3.17432 m -6.7274,7.2304 h 1.0654 v -8.03868 h -1.0654 v 8.03868 m 0,-9.00862 h 1.0654 v -1.85168 h -1.0654 v 1.85168 m -3.9288,9.00862 h 1.0656 v -7.05404 h 1.771 v -0.98464 h -1.771 v -2.82162 h -1.0656 v 2.82162 h -1.699 v 0.98464 h 1.699 v 7.05404 m -3.8332,0 h 1.0656 v -10.8603 h -1.0656 v 10.8603 m -2.8686,0 h 1.0656 v -10.8603 h -1.0656 v 10.8603 m -1.8228,-8.03868 h -1.0654 v 1.4255 c -0.777604,-1.11688 -1.742404,-1.61654 -3.110204,-1.61654 -2.3616,0 -4.147,1.8223 -4.147,4.23244 0,2.39542 1.7998,4.18834 4.219,4.18834 1.339,0 2.203,-0.4556 3.038204,-1.60186 v 1.4108 h 1.0654 v -8.03868 m -4.146804,0.80828 c 1.7278,0 3.081404,1.38142 3.081404,3.17432 0,1.8223 -1.324804,3.24782 -3.023804,3.24782 -1.7856,0 -3.1534,-1.42552 -3.1534,-3.2625 0,-1.74882 1.3822,-3.15964 3.0958,-3.15964 M 300.01708,32.920554 h -2.8524 v 3.73888 c -2.0814,-2.92942 -4.664,-4.23996 -8.3258,-4.23996 -6.3214,0 -11.101,4.7796 -11.101,11.10098 0,6.28284 4.8182,10.98536 11.2938,10.98536 3.5846,0 5.8974,-1.19492 8.133,-4.20142 v 3.70032 h 2.8524 v -21.08416 m -11.101,2.11998 c 4.6254,0 8.2486,3.62324 8.2486,8.32574 0,4.77958 -3.5462,8.51846 -8.0944,8.51846 -4.7796,0 -8.4414,-3.73888 -8.4414,-8.557 0,-4.58686 3.7002,-8.2872 8.2872,-8.2872 m -33.857,18.96418 h 2.8522 v -11.60206 c 0,-2.35126 0.3084,-3.5847 1.1178,-4.7796 1.1178,-1.61888 3.0836,-2.58252 5.3192,-2.58252 2.0814,0 3.9702,0.848 5.1266,2.27416 1.0022,1.31054 1.3876,2.85234 1.3876,5.62758 v 11.06244 h 2.8524 v -11.06244 c 0,-3.54614 -0.5012,-5.43484 -1.8502,-7.24646 -1.6576,-2.08144 -4.2014,-3.27634 -7.1694,-3.27634 -2.7752,0 -5.011,1.07926 -6.784,3.23778 v -2.7367 h -2.8524 v 21.08416 m -11.5936,0 h 2.8524 v -12.29588 c 0,-3.93158 2.0044,-6.09012 5.9744,-6.47556 v -2.8138 c -3.045,0.1542 -4.8566,1.1949 -5.9744,3.5076 v -3.00652 h -2.8524 v 21.08416 m -3.9466,-9.59772 c 0,-2.89088 -0.3854,-4.66396 -1.4262,-6.51412 -1.8886,-3.35342 -5.5504,-5.4734 -9.5592,-5.4734 -6.1286,0 -10.9468,4.81814 -10.9468,10.9468 0,6.2443 4.8952,11.13954 11.1396,11.13954 2.6982,0 5.2422,-1.00218 7.1694,-2.8138 1.5032,-1.42616 2.5054,-2.89088 3.0836,-4.6254 h -2.968 c -1.1948,2.89086 -4.1628,4.81812 -7.3622,4.81812 -4.317,0 -7.9788,-3.31488 -8.21,-7.47774 h 19.0798 m -19.0028,-2.58252 c 0.771,-4.04722 3.9702,-6.78394 7.979,-6.78394 4.0856,0 7.2078,2.58254 8.1714,6.78394 h -16.1504 m -13.7136,12.18024 h 2.8524 v -12.29588 c 0,-3.93158 2.0044,-6.09012 5.9744,-6.47556 v -2.8138 c -3.045,0.1542 -4.8566,1.1949 -5.9744,3.5076 v -3.00652 h -2.8524 v 21.08416 m -4.8794,-21.08416 h -2.8524 v 3.73888 c -2.0814,-2.92942 -4.664,-4.23996 -8.3258,-4.23996 -6.3214,0 -11.10099,4.7796 -11.10099,11.10098 0,6.28284 4.81819,10.98536 11.29379,10.98536 3.5846,0 5.8974,-1.19492 8.133,-4.20142 v 3.70032 h 2.8524 v -21.08416 m -11.101,2.11998 c 4.6252,0 8.2486,3.62324 8.2486,8.32574 0,4.77958 -3.5462,8.51846 -8.0946,8.51846 -4.7796,0 -8.44119,-3.73888 -8.44119,-8.557 0,-4.58686 3.70019,-8.2872 8.28719,-8.2872 m -3.5076,-9.90608 v 4.85668 h 2.8522 v -4.85668 h -2.8522 m 5.666,0 v 4.85668 h 2.8524 v -4.85668 h -2.8524 m -17.38859,7.7861 h -2.8524 v 19.61946 c 0,4.39412 -1.0792,5.93594 -4.2784,6.12866 v 2.7367 c 1.85,-0.077 3.1606,-0.50108 4.4326,-1.42616 2.043,-1.54182 2.6982,-3.31488 2.6982,-7.4392 v -19.61946 m -2.8524,-2.54396 h 2.8524 v -4.85668 h -2.8524 v 4.85668 m -23.604,23.62812 h 2.8524 v -11.60206 c 0,-2.35126 0.3084,-3.5847 1.1178,-4.7796 1.1178,-1.61888 3.0836,-2.58252 5.3192,-2.58252 2.0814,0 3.9702,0.848 5.1264,2.27416 1.0022,1.31054 1.3876,2.85234 1.3876,5.62758 v 11.06244 h 2.8524 v -11.06244 c 0,-3.54614 -0.501,-5.43484 -1.8502,-7.24646 -1.6574,-2.08144 -4.2014,-3.27634 -7.1694,-3.27634 -2.7752,0 -5.0108,1.07926 -6.7838,3.23778 v -2.7367 h -2.8524 v 21.08416 m -14.967,-21.58524 c -6.2442,0 -11.0624,4.74106 -11.0624,10.90826 0,6.47556 4.7412,11.17808 11.2938,11.17808 6.1672,0 10.7154,-4.66398 10.7154,-10.98536 0,-6.43702 -4.6254,-11.10098 -10.9468,-11.10098 m 0,2.62106 c 4.6254,0 8.056,3.62324 8.056,8.51846 0,4.81814 -3.3148,8.32574 -7.9018,8.32574 -4.8566,0 -8.3256,-3.54614 -8.3256,-8.47992 0,-4.77958 3.5076,-8.36428 8.1714,-8.36428 m -17.9318,18.96418 h 2.8524 v -21.08416 h -2.8524 v 21.08416 m 0,-23.62812 h 2.8524 v -4.85668 h -2.8524 v 4.85668 m -22.309804,23.62812 h 2.8524 v -11.52498 h 5.473404 c 3.8544,0 5.936,-0.50108 7.6704,-1.77306 1.8502,-1.34908 2.8524,-3.70034 2.8524,-6.55266 0,-3.27634 -1.2334,-5.85886 -3.392,-7.13084 -1.773,-1.07928 -3.9316,-1.50326 -7.5934,-1.50326 h -7.863204 v 28.4848 m 2.8524,-14.1075 v -11.79478 h 4.047204 c 3.2764,0 5.3192,0.2698 6.4756,0.84798 1.6574,0.848 2.5824,2.65962 2.5824,5.2036 0,2.19706 -0.8864,3.97014 -2.3512,4.77958 -1.1948,0.6938 -2.8522,0.96362 -5.4734,0.96362 h -5.280604"
     id="path3120"
     style="fill:#000000;stroke-width:1" />
</svg>
